<svg width="108" height="108" viewBox="0 0 108 108" version="1.1" xmlns="http://www.w3.org/2000/svg" xmlns:xlink="http://www.w3.org/1999/xlink">
<title>1f984</title>
<desc>Created using Figma</desc>
<g id="Canvas" transform="translate(-1251 217)">
<g id="1f984">
<g id="Vector">
<use xlink:href="#path0_fill" transform="translate(1251 -217)" fill="#FF9C70"/>
</g>
<g id="Vector">
<use xlink:href="#path1_fill" transform="translate(1259.1 -209.62)" fill="#FFE76E"/>
</g>
<g id="Vector">
<use xlink:href="#path2_fill" transform="translate(1263.78 -204.76)" fill="#D3FF75"/>
</g>
<g id="Vector">
<use xlink:href="#path3_fill" transform="translate(1268.46 -199.54)" fill="#59FFBA"/>
</g>
<g id="Vector">
<use xlink:href="#path4_fill" transform="translate(1272.6 -194.5)" fill="#73DEFF"/>
</g>
<g id="Vector">
<use xlink:href="#path5_fill" transform="translate(1277.1 -188.92)" fill="#8387F7"/>
</g>
<g id="Group">
<g id="Vector">
<use xlink:href="#path6_fill" transform="translate(1303.2 -205.079)" fill="#FF639B"/>
</g>
<g id="Vector">
<use xlink:href="#path7_fill" transform="translate(1303.38 -196.352)" fill="#FF639B"/>
</g>
</g>
<g id="Vector">
<use xlink:href="#path8_fill" transform="translate(1300.32 -189.199)" fill="#FCA9C9"/>
</g>
<g id="Vector">
<use xlink:href="#path9_fill" transform="translate(1298.08 -206.02)" fill="#B2C1C0"/>
</g>
<g id="Vector">
<use xlink:href="#path10_fill" transform="translate(1251.08 -206.2)" fill="#EFF6F7"/>
</g>
<g id="Group">
<g id="Vector">
<use xlink:href="#path11_fill" transform="translate(1254.39 -150.94)" fill="#B2C1C0"/>
</g>
</g>
<g id="Vector">
<use xlink:href="#path12_fill" transform="translate(1276.92 -164.26)" fill="#3E4347"/>
</g>
<g id="Group">
<g id="Vector">
<use xlink:href="#path13_fill" transform="translate(1255.79 -198.745)" fill="#B2C1C0"/>
</g>
</g>
<g id="Group">
<g id="Vector">
<use xlink:href="#path14_fill" transform="translate(1282.27 -191.8)" fill="#FF639B"/>
</g>
</g>
<g id="Vector">
<use xlink:href="#path15_fill" transform="translate(1294.02 -145.72)" fill="#B2C1C0"/>
</g>
</g>
</g>
<defs>
<path id="path0_fill" d="M 0 0L 7.92001 10.62C 8.46001 9.54 9.18002 8.46 9.72002 7.2L 0 0Z"/>
<path id="path1_fill" d="M 4.68001 9.72C 5.94001 8.1 7.20001 6.48 8.28001 4.86L 1.8 -1.71661e-07C 1.26 1.08 0.540001 2.16 0 3.42L 4.68001 9.72Z"/>
<path id="path2_fill" d="M 4.50001 10.98L 10.44 5.04L 3.60001 3.43323e-07C 2.34 1.62 1.08 3.24 6.86647e-07 4.86L 4.50001 10.98Z"/>
<path id="path3_fill" d="M 4.32001 11.7L 12.96 5.22L 5.94001 -3.43323e-07L -3.43323e-07 5.94L 4.32001 11.7Z"/>
<path id="path4_fill" d="M 4.32001 12.24C 8.28001 10.08 12.24 7.74 16.02 5.58L 8.64001 -3.19744e-15L 6.3949e-15 6.48L 4.32001 12.24Z"/>
<path id="path5_fill" d="M 11.7 6.86646e-07C 7.74001 2.16 3.78001 4.5 0 6.66L 7.02001 16.02L 15.84 7.2L 18.36 4.68L 11.7 6.86646e-07Z"/>
<path id="path6_fill" d="M 2.34 16.5194C 2.34 16.5194 9.90002 3.73936 42.3001 0.679363C 9.36002 -2.92064 0 8.95936 0 8.95936C 0 8.95936 1.26 13.8194 2.34 16.5194Z"/>
<path id="path7_fill" d="M 6.86647e-07 9.59208C 6.86647e-07 9.59208 16.2 -1.74791 45.1801 0.232086L 18.72 13.0121C 18.72 13.0121 33.8401 15.1721 54.3601 16.4321L 32.9401 23.4521C 32.9401 23.4521 40.5001 28.1321 54.1801 32.6321L 39.7801 34.7921C 39.7801 34.7921 51.1201 35.5121 55.4401 45.9521L 45.5401 45.2321C 45.5401 45.2321 50.0401 55.8521 55.4401 61.9721L 46.0801 56.5721C 46.0801 56.5721 51.4801 65.7521 55.4401 74.7521L 45.7201 71.8721C 50.2201 82.4921 54.3601 86.9921 54.3601 86.9921C 30.06 79.7921 6.86647e-07 9.59208 6.86647e-07 9.59208Z"/>
<path id="path8_fill" d="M -6.86647e-07 5.31873C -6.86647e-07 5.31873 21.42 -4.40127 51.6601 2.43873L 18.9 8.91873C 18.9 8.91873 40.8601 9.99873 54.1801 19.3587L 33.1201 19.3587C 33.1201 19.3587 46.2601 22.4187 52.2001 32.1387L 39.7801 30.8787C 39.7801 30.8787 53.2801 36.6387 58.6801 48.1587L 45.5401 41.3187C 45.5401 41.3187 55.9801 46.8987 54.5401 65.4387L 46.9801 49.5987C 46.9801 49.5987 49.8601 68.8587 55.6201 73.3587L 47.7001 73.1787C 51.3001 77.1387 53.1001 80.1987 53.1001 80.1987L 33.6601 80.1987L -6.86647e-07 5.31873Z"/>
<path id="path9_fill" d="M 0.0803321 19.62C 0.0803321 19.62 -0.999673 11.7 4.76034 6.86646e-07C 4.76034 6.86646e-07 12.1404 9.18 13.9404 25.56L 0.0803321 19.62Z"/>
<path id="path10_fill" d="M 15.0419 82.62C 17.7419 84.42 24.0419 77.22 31.2419 75.96C 58.242 70.92 53.202 60.48 53.202 60.48C 60.582 69.66 49.2419 91.26 42.7619 97.2L 97.482 97.2C 97.122 25.2 52.302 19.44 52.302 19.44C 50.8619 6.48 39.7019 0 39.7019 0C 36.2819 8.1 37.9019 22.5 37.9019 22.5C 32.3219 32.22 3.88187 59.04 0.641866 63C -2.59814 66.96 7.48188 78.84 7.48188 78.84C 10.1819 79.2 13.6019 81.54 15.0419 82.62Z"/>
<path id="path11_fill" d="M 20.1934 23.94C 21.6334 22.86 25.0534 20.7 30.2734 19.62C 33.8734 18.9 37.2934 17.82 40.5334 16.38C 43.7734 14.94 46.6534 12.96 48.4534 9.9C 50.0734 7.02 50.0734 3.24 48.8134 1.37329e-06C 50.7934 2.88 51.5134 7.02 49.7134 10.62C 48.0934 14.22 44.6734 16.56 41.2534 18C 37.8334 19.62 34.2334 20.52 30.4534 21.06C 26.1334 21.6 21.9934 23.22 20.1934 23.94ZM 4.17336 12.78C 3.27336 13.5 0.933354 13.86 0.213353 12.96C -0.506648 12.06 0.753354 10.08 1.65336 9.54C 2.55336 8.82 3.81336 9 4.53336 9.9C 5.25336 10.98 5.07336 12.24 4.17336 12.78ZM 21.6334 7.92C 21.4534 12.06 19.2934 16.2 16.0534 19.08C 14.4334 20.52 12.4534 21.78 10.4734 22.5C 8.49337 23.22 6.15336 23.58 3.99336 23.58C 8.13336 22.32 11.9134 20.52 14.7934 17.82C 16.2334 16.56 17.4934 14.94 18.7534 13.32C 19.8334 11.7 20.9134 9.9 21.6334 7.92Z"/>
<path id="path12_fill" d="M -6.86647e-07 7.02C -6.86647e-07 7.02 1.62 5.76 3.06001 6.12C 3.06001 6.12 1.08 8.1 2.52 11.34C 2.52 11.34 4.14001 7.56 7.02001 7.38C 7.02001 7.38 5.04001 10.08 7.56001 12.6C 7.56001 12.6 8.10001 8.82 11.7 7.56C 11.7 7.56 11.16 9.54 12.96 12.06C 12.96 12.06 12.42 8.64 14.94 6.84C 17.46 5.22 20.34 4.14 21.6 -1.37329e-06C 21.6 -1.37329e-06 15.48 6.3 7.02001 4.5C 5.04001 3.78 1.8 3.24 -6.86647e-07 7.02Z"/>
<path id="path13_fill" d="M 37.3294 17.0252C 34.2694 13.0652 36.2494 1.90524 36.6094 0.285241C 36.9694 -1.51476 47.0494 5.32524 44.3494 17.3852C 44.1694 18.4652 43.6294 19.5452 42.5494 19.5452C 41.4694 19.5452 41.4694 16.4852 42.0094 14.5052C 42.5494 12.5252 41.2894 14.5052 40.9294 15.7652C 40.3894 17.2052 40.0294 16.1252 40.2094 14.6852C 40.3894 13.2452 39.1294 16.1252 39.4894 17.7452C 39.6694 19.3652 39.4894 19.7252 37.3294 17.0252ZM 0.609365 53.9253C -0.290637 54.4653 -0.110637 54.8253 0.609365 54.4653C 1.50937 54.1053 5.46937 53.2053 5.82937 57.3453C 5.82937 57.3453 6.00937 59.3253 6.54938 57.3453C 7.08938 55.5453 6.00937 50.6853 0.609365 53.9253Z"/>
<path id="path14_fill" d="M 6.52837 3.6C 6.52837 3.6 11.3884 23.4 30.8284 33.48C 30.8284 33.48 -17.0517 23.04 6.52837 3.6ZM 21.1084 5.04C 21.1084 5.04 33.3484 37.44 58.5485 46.44C 33.7084 22.68 39.8284 9.36 20.0284 0C 20.0284 0 20.0284 2.34 21.1084 5.04Z"/>
<path id="path15_fill" d="M 10.44 -2.74658e-06C 10.44 -2.74658e-06 21.78 7.38 13.5 36.72L -6.86647e-07 36.72C -6.86647e-07 36.72 16.74 16.56 10.44 -2.74658e-06Z"/>
</defs>
</svg>
