<svg width="50" height="55" viewBox="0 0 50 55" version="1.1" xmlns="http://www.w3.org/2000/svg" xmlns:xlink="http://www.w3.org/1999/xlink">
<title>vs</title>
<desc>Created using Figma</desc>
<g id="Canvas" transform="translate(-1097 195)">
<g id="vs">
<g id="Group">
<g id="Vector">
<use xlink:href="#path0_fill" transform="matrix(0.976717 -0.214532 0.214532 0.976717 1091 -185.201)" fill="#FF2D78"/>
<use xlink:href="#path0_fill" transform="matrix(0.976717 -0.214532 0.214532 0.976717 1091 -185.201)" fill="url(#paint1_linear)"/>
</g>
<g id="Vector">
<use xlink:href="#path1_fill" transform="matrix(0.976717 -0.214532 0.214532 0.976717 1116.05 -189.276)" fill="#FF2D78"/>
<use xlink:href="#path1_fill" transform="matrix(0.976717 -0.214532 0.214532 0.976717 1116.05 -189.276)" fill="url(#paint3_linear)"/>
</g>
</g>
</g>
</g>
<defs>
<linearGradient id="paint1_linear" x1="0" y1="0" x2="1" y2="0" gradientUnits="userSpaceOnUse" gradientTransform="matrix(17.6712 56.12 -41.4382 64.5295 21.5474 -39.6248)">
<stop offset="0" stop-color="#FF9900"/>
<stop offset="1" stop-color="#FF9900" stop-opacity="0"/>
</linearGradient>
<linearGradient id="paint3_linear" x1="0" y1="0" x2="1" y2="0" gradientUnits="userSpaceOnUse" gradientTransform="matrix(15.4312 51.8807 -36.1856 59.6549 18.8161 -36.6315)">
<stop offset="0" stop-color="#FF9900"/>
<stop offset="1" stop-color="#FF9900" stop-opacity="0"/>
</linearGradient>
<path id="path0_fill" d="M 0.382142 44.4193L -4.44403e-05 43.0565L -4.44403e-05 39.7816L 4.91477 8.7121L 6.22521 3.42484L 7.37204 2.28025L 8.45972 1.95768L 9.28353 1.08562L 11.2995 2.06678L 12.3416 3.10699L 12.9421 3.54295L 14.4167 4.30605L 15.2857 5.17825L 15.7271 8.0671L 14.685 11.1195L 13.5928 15.8072L 13.3745 16.2932L 13.3745 17.7151L 20.3097 8.88482L 28.1734 1.52616L 30.9584 -5.21213e-05L 32.2689 -5.21213e-05L 33.7979 0.926625L 33.7979 1.47168L 33.9618 1.79882L 33.9618 2.23479L 33.4157 1.96226L 33.7979 2.50288L 33.634 2.66631L 33.4157 2.66631L 33.088 2.99332L 32.6011 2.99332L 32.6011 3.26598L 33.088 3.26598L 32.1597 3.70652L 31.7228 3.70652L 32.1597 4.57414L 32.055 5.06472L 32.6011 4.46505L 32.4372 5.28277L 32.4919 6.10035L 31.8911 6.10035L 31.8911 6.64541L 31.5637 6.97241L 31.1812 6.59093L 30.799 7.40851L 30.4713 7.40851L 30.253 8.00805L 29.9799 8.17162L 29.7025 8.88025L 29.2153 8.88025L 28.7239 9.69783L 27.4132 10.7879L 26.9766 10.7879L 26.9766 11.551L 26.3758 11.551L 25.6659 12.7548L 24.9012 13.4589L 24.4646 14.3856L 24.246 14.3856L 23.8638 15.094L 23.5861 15.094L 22.9856 15.8571L 22.7126 16.4568L 22.3848 16.7339L 22.1073 17.1699L 21.8887 17.9876L 20.9058 19.0777L 20.1958 20.4404L 19.4315 21.149L 19.4315 21.476L 19.1584 21.7487L 19.1584 22.0757L 18.8307 22.3482L 18.8307 22.7887L 18.1208 23.7108L 15.8865 27.8535L 16.0457 27.9625L 15.7226 28.3986L 15.3405 29.6022L 14.5258 30.6288L 14.0889 31.3919L 12.9421 34.0082L 12.5052 34.6079L 11.14 38.3143L 9.82959 43.0565L 8.62804 44.2558L 6.9943 45.1278L 6.38908 45.5639L 5.35168 46L 3.27659 46L 1.80201 45.8364L 0.382142 44.4193ZM 33.2018 3.26598L 33.6388 3.26598L 33.534 3.87009L 33.2018 3.26598Z"/>
<path id="path1_fill" d="M 0.382282 42.0437L 9.55466e-05 41.0579L 0.163691 39.6953L 0.600595 39.0956L 0.869181 39.0956L 1.85659 38.1145L 2.29349 38.1145L 2.29349 37.6785L 2.01602 37.842L 2.17989 37.4559L 4.53245 35.9297L 15.4495 26.4453L 16.5963 24.8147L 16.378 24.4875L 9.44727 25.6868L 7.14915 25.6868L 5.84316 25.4142L 3.16286 24.6511L 1.52912 23.2885L 0.819186 21.8667L 0.491439 20.3404L 1.0375 18.3237L 1.86131 17.288L 2.07962 16.6294L 3.99083 14.0176L 4.31858 13.7404L 5.57013 12.1099L 7.42662 10.143L 7.53606 9.87044L 8.13656 9.42991L 8.40959 8.99381L 12.8875 4.96023L 18.2937 1.41723L 21.1334 -2.10703e-05L 22.3394 -2.10703e-05L 25.1789 1.58067L 25.6158 1.68976L 25.6158 1.98045L 27.9094 3.23413L 28.7285 4.31981L 29.6568 6.11854L 28.8377 9.87959L 28.7285 12.4369L 27.9639 14.0221L 26.9265 14.5672L 24.7419 14.6717L 23.4907 14.5672L 22.726 14.2901L 22.6169 14.1266L 20.8695 13.3635L 20.1596 12.2733L 20.1596 11.6738L 20.5418 9.87502L 20.1596 9.71145L 18.5214 9.71145L 15.7408 12.1099L 15.1948 12.7094L 14.8126 12.7639L 10.1664 18.1602L 9.51087 19.2458L 14.5896 18.7007L 17.7523 18.7007L 21.0834 19.2458L 23.3224 20.4994L 24.1415 21.2625L 24.0323 21.4261L 24.0323 22.4073L 24.4145 22.4073L 24.1415 22.6798L 24.5784 22.9569L 25.0697 22.9569L 24.9058 22.5753L 25.1836 22.4117L 25.1836 22.9569L 24.9058 23.502L 25.7796 22.9023L 25.4519 23.502L 25.7249 23.72L 25.7249 23.9925L 25.4519 24.2696L 25.7249 24.374L 25.4519 24.5376L 25.6158 24.6465L 25.2883 24.8101L 25.7249 25.1325L 25.4519 25.1325L 25.0697 25.2961L 25.2883 25.5732L 25.6158 25.6777L 25.0153 25.8412L 24.7375 26.9859L 24.3006 27.3674L 24.3006 27.0949L 23.8637 27.531L 23.8637 27.9126L 23.204 28.1895L 22.7171 28.9526L 22.6077 29.2752L 22.1711 29.5523L 22.3347 29.1116L 22.0572 29.1116L 21.8933 29.6567L 21.5111 29.6567L 21.129 30.3653L 19.5999 31.946L 19.163 31.946L 19.163 32.2732L 18.4531 32.9317L 18.0709 32.9317L 17.907 33.3678L 16.3233 34.676L 16.105 35.003L 15.8272 35.003L 15.445 35.2755L 15.2812 35.6572L 14.4121 36.4203L 14.1343 36.4203L 13.916 36.8018L 13.5883 36.6928L 13.5883 36.9699L 12.5509 37.842L 12.0048 38.1145L 11.2949 39.0956L 9.98416 39.8043L 9.32895 40.5129L 8.29127 41.2169L 8.01379 41.2169L 7.13998 42.089L 7.36302 41.4895L 6.8714 41.4895L 6.8714 40.8899L 6.43477 41.108L 6.10702 40.9444L 6.10702 40.6673L 5.99787 40.8309L 5.99787 41.108L 6.32534 41.3805L 5.83844 41.3805L 5.56096 41.6575L 5.17878 41.3305L 5.0149 41.494L 3.86807 41.7666L 3.59504 41.2215L 3.69975 42.0936L 3.42672 42.0936L 3.26285 41.9301L 2.98982 42.3661L 2.82594 42.0936L 2.98982 41.6575L 2.60763 41.8211L 2.44376 41.494L 2.00241 41.6575L 1.67911 41.6575L 1.29692 42.5251L 1.01944 42.2526L 0.382282 42.0437ZM 4.58245 42.0982L 4.41885 42.2617L 3.87251 42.3661L 3.98195 42.0936L 4.58245 42.0936L 4.58245 42.0982ZM 5.01935 40.6809L 5.18322 40.5219L 5.01935 40.3585L 5.01935 40.6809ZM 23.8637 24.0015L 24.4053 23.729L 24.0823 23.3475L 23.8637 24.0015ZM 25.1744 26.1274L 25.2791 25.9639L 25.5566 26.1819L 25.0105 26.727L 25.1744 26.4499L 25.1744 26.1274Z"/>
</defs>
</svg>
